<svg xmlns="http://www.w3.org/2000/svg" viewBox="0 0 512 512" width="512" height="512">
  <rect width="512" height="512" rx="112" fill="#1E3932"/>
  <circle cx="256" cy="256" r="218" fill="none" stroke="#CBA258" stroke-width="6"/>
  <circle cx="256" cy="256" r="200" fill="none" stroke="#006241" stroke-width="12"/>
  <!-- Roof -->
  <polygon points="256,120 130,240 152,256 256,155 360,256 382,240" fill="#CBA258"/>
  <!-- House Walls -->
  <rect x="170" y="246" width="172" height="130" rx="8" fill="#1E3932" stroke="#CBA258" stroke-width="14"/>
  <!-- Coffee Cup -->
  <path d="M 210 275 L 302 275 C 302 335 292 345 256 345 C 220 345 210 335 210 275 Z" fill="#F2F0EB"/>
  <!-- Cup Handle -->
  <path d="M 296 288 C 322 288 322 322 296 322" fill="none" stroke="#F2F0EB" stroke-width="10" stroke-linecap="round"/>
  <!-- Steam Waves -->
  <path d="M 242 262 Q 248 248 242 238" fill="none" stroke="#CBA258" stroke-width="6" stroke-linecap="round"/>
  <path d="M 256 264 Q 262 250 256 240" fill="none" stroke="#CBA258" stroke-width="6" stroke-linecap="round"/>
  <path d="M 270 262 Q 276 248 270 238" fill="none" stroke="#CBA258" stroke-width="6" stroke-linecap="round"/>
</svg>